<svg
  width="40"
  height="40"
  viewBox="0 0 40 40"
  fill="none"
  xmlns="http://www.w3.org/2000/svg"
>
  <path
    d="M24.9131 27.6761C24.8657 26.6378 24.8167 25.5574 24.7646 24.5252C24.349 24.9766 23.8655 25.3693 23.3267 25.6868L17.9086 24C15.0187 25.8509 10.7161 28.3999 8 30.0777C13.6582 34.3843 21.7387 30.1093 21.7387 30.1093L22.4118 29.5932H25C24.9716 28.9823 24.9431 28.3367 24.9131 27.6776V27.6761Z"
    fill="white"
  />
  <path
    d="M27.056 13.0016C25.9972 13.6803 24.9416 14.3621 24 14.9771C24.6726 15.5363 25.2265 16.2325 25.6237 17.0227L24.5159 20.131C24.7565 23.6742 24.9052 28.3644 25.0904 32C31.8465 29.3394 32 20.0195 32 20.0195L27.056 13V13.0016Z"
    fill="white"
  />
  <path
    d="M18.2613 9.89218L17.5882 10.4083H15C15.0758 12.053 15.1533 13.8166 15.2354 15.4748C15.651 15.0234 16.1345 14.6307 16.6733 14.3132L22.0914 16C23.6177 15.0204 25.3795 13.9505 27.0639 12.9258C28.8999 11.8108 30.7407 10.7002 32 9.92228C26.3418 5.61566 18.2613 9.89068 18.2613 9.89068V9.89218Z"
    fill="white"
  />
  <path
    d="M14.3763 22.9773L15.4841 19.869C15.2435 16.3258 15.0948 11.6356 14.9096 8C8.15193 10.6606 8 19.9805 8 19.9805L12.944 27C14.0012 26.3213 15.0584 25.6394 16 25.0245C15.3274 24.4653 14.7735 23.7691 14.3763 22.9789V22.9773Z"
    fill="white"
  />
  <path
    d="M18.4551 9.4862L17.742 9.99597H15C15.0804 11.6204 15.1624 13.3622 15.2494 15C15.6897 14.5541 16.2019 14.1662 16.7728 13.8527L23 8C20.3601 8.54692 18.4551 9.48471 18.4551 9.4862Z"
    fill="#DCDDDD"
  />
  <path
    d="M27.056 13C25.9972 13.6768 24.9416 14.3568 24 14.97C24.6726 15.5277 25.2265 16.222 25.6237 17.01L32 20L27.056 13Z"
    fill="#DCDDDD"
  />
  <path
    d="M21.5449 29.5138L22.258 29.004H25C24.9196 27.3796 24.8376 25.6378 24.7506 24C24.3103 24.4459 23.7981 24.8338 23.2272 25.1473L17 31C19.6399 30.4531 21.5449 29.5153 21.5449 29.5138Z"
    fill="#DCDDDD"
  />
  <path
    d="M12.944 27C14.0028 26.3232 15.0584 25.6432 16 25.03C15.3274 24.4723 14.7735 23.778 14.3763 22.99L8 20L12.944 27Z"
    fill="#DCDDDD"
  />
</svg>
