<svg width="188" height="84" viewBox="0 0 188 84" fill="none" xmlns="http://www.w3.org/2000/svg">
<g clip-path="url(#clip0_8424_1964)">
<g clip-path="url(#clip1_8424_1964)">
<path d="M34.3247 37.2069L36.5842 39.4752L38.8435 41.7433L28.8835 51.7372C27.7935 52.8332 26.9402 53.688 26.2423 54.3575C25.1835 55.3788 24.4908 55.972 23.8967 56.3257C22.4292 57.1963 20.7558 57.6557 19.0513 57.6557C17.3468 57.6557 15.6735 57.1963 14.206 56.3257C13.2197 55.7378 11.7221 54.7425 8.97385 51.9903C6.2256 49.2383 5.2341 47.7278 4.65543 46.736C3.78652 45.264 3.32803 43.5845 3.32803 41.8733C3.32803 40.1623 3.78652 38.4829 4.65543 37.0109C5.241 36.019 6.4778 34.7565 9.22605 32.0027L17.9493 23.2349H11.843L6.16342 28.9298C3.07315 32.0391 1.78453 33.3571 0.931217 34.7999C-0.332947 36.9411 -1 39.3843 -1 41.8733C-1 44.3625 -0.332947 46.8057 0.931217 48.947C1.78453 50.3915 2.83133 51.954 5.91813 55.0563C9.00495 58.1587 10.5734 59.2043 12.0019 60.0627C14.1041 61.313 16.499 61.9813 18.9423 61.9997C21.3857 62.0178 23.7902 61.3855 25.9107 60.1668C25.9728 60.1322 26.035 60.0992 26.0955 60.0627C27.037 59.5027 27.9248 58.7535 29.2947 57.432C30.015 56.7383 30.8683 55.8713 31.9358 54.81L39.6363 47.0793C41.1443 45.5637 41.5797 45.1283 41.9425 44.2162C42.58 42.6107 42.6003 40.8243 41.9995 39.2045C41.654 38.282 41.2342 37.8364 39.7538 36.2878C38.2113 34.8086 37.7673 34.3802 36.8502 34.0334C35.2373 33.4304 33.4588 33.4502 31.8598 34.0889C30.9477 34.4548 30.5142 34.89 29.0045 36.4057L18.692 46.7707L16.4308 44.5023L14.1698 42.2342L24.1247 32.2403C25.2163 31.146 26.0678 30.2894 26.7675 29.62C27.8247 28.6003 28.519 28.0073 29.1115 27.6535C30.5788 26.7816 32.2527 26.3216 33.9577 26.3216C35.6627 26.3216 37.3365 26.7816 38.8038 27.6535C39.7883 28.2362 41.1652 29.3599 43.9117 32.1189C46.6582 34.8779 47.774 36.2583 48.3597 37.2537C49.2295 38.7262 49.6885 40.4067 49.6885 42.1188C49.6885 43.8308 49.2295 45.5113 48.3597 46.9838C47.774 47.9723 46.539 49.2383 43.7907 51.9903L35.0502 60.765H41.1565L46.836 55.0632C49.9263 51.9608 51.215 50.643 52.0683 49.2002C53.3328 47.0587 54 44.6152 54 42.1257C54 39.6363 53.3328 37.1927 52.0683 35.0513C51.215 33.6085 50.0525 32.1709 46.9587 29.0668C43.865 25.9627 42.4347 24.7939 40.9975 23.9373C38.8953 22.687 36.5005 22.0187 34.0572 22.0004C31.6138 21.9821 29.2093 22.6145 27.0888 23.8332L26.904 23.9373C25.9625 24.4905 25.0833 25.2396 23.7013 26.561C22.9793 27.2546 22.1278 28.1113 21.0603 29.183L13.3786 36.9068C11.8689 38.4138 11.4371 38.849 11.0709 39.763C10.4333 41.3687 10.413 43.1548 11.0139 44.7747C11.3594 45.6955 11.7808 46.1412 13.2594 47.6915C14.8037 49.1707 15.2477 49.599 16.1667 49.9458C17.7795 50.549 19.5582 50.5287 21.157 49.8885C22.0673 49.5227 22.5008 49.0873 24.0088 47.5718L34.3247 37.2069Z" fill="#FF9900"/>
<path d="M184.543 55.8468C182.736 55.8468 181.223 55.5034 180.001 54.8168C178.805 54.1038 177.901 53.1266 177.291 51.8853C176.681 50.6176 176.375 49.1651 176.375 47.5278V30.6914H181.795V47.3693C181.795 48.4521 182.088 49.2971 182.673 49.9046C183.258 50.5119 184.048 50.8158 185.04 50.8158C185.6 50.8158 186.198 50.7364 186.835 50.5781C187.47 50.4196 188.016 50.1819 188.475 49.8649V54.8961C187.991 55.1866 187.381 55.4111 186.643 55.5694C185.93 55.7543 185.231 55.8468 184.543 55.8468ZM188.475 40.4366H172.901V35.6829H188.475V40.4366Z" fill="black"/>
<path d="M159.128 55.8045C157.296 55.8045 155.68 55.3423 154.28 54.418C152.881 53.4672 151.774 52.2127 150.96 50.6545C150.171 49.07 149.776 47.3268 149.776 45.4253C149.776 43.5503 150.222 41.8337 151.112 40.2755C152.028 38.6908 153.25 37.4364 154.777 36.5121C156.329 35.5613 158.072 35.0859 160.006 35.0859C161.965 35.0859 163.721 35.5481 165.274 36.4725C166.825 37.3704 168.047 38.5984 168.939 40.1567C169.829 41.6883 170.274 43.4447 170.274 45.4253V55.2895H165.121V48.1983L166.762 47.723C166.762 49.2548 166.444 50.6413 165.809 51.8825C165.172 53.0975 164.294 54.0613 163.174 54.7745C162.055 55.4612 160.706 55.8045 159.128 55.8045ZM160.006 50.5357C160.948 50.5357 161.775 50.3112 162.487 49.8622C163.225 49.3868 163.798 48.7662 164.205 48.0003C164.637 47.2345 164.854 46.3893 164.854 45.465C164.854 44.5407 164.637 43.6955 164.205 42.9297C163.798 42.1638 163.225 41.5563 162.487 41.1073C161.775 40.632 160.948 40.3943 160.006 40.3943C159.09 40.3943 158.263 40.632 157.525 41.1073C156.812 41.5563 156.24 42.1638 155.807 42.9297C155.4 43.6955 155.197 44.5407 155.197 45.465C155.197 46.3893 155.4 47.2345 155.807 48.0003C156.24 48.7662 156.812 49.3868 157.525 49.8622C158.263 50.3112 159.09 50.5357 160.006 50.5357Z" fill="black"/>
<path d="M136.897 55.8074C134.607 55.8074 132.571 55.3187 130.79 54.3416C129.034 53.3381 127.749 51.8856 126.935 49.9839L131.591 47.5674C131.999 48.5182 132.647 49.2446 133.538 49.7462C134.454 50.2481 135.574 50.4989 136.897 50.4989C137.711 50.4989 138.424 50.3934 139.035 50.1821C139.671 49.9444 140.18 49.6142 140.561 49.1917C140.943 48.7427 141.134 48.2012 141.134 47.5674C141.134 46.8281 140.93 46.2734 140.523 45.9037C140.116 45.5076 139.556 45.2171 138.844 45.0321C138.131 44.8472 137.33 44.6756 136.439 44.5171C135.472 44.3322 134.454 44.0946 133.385 43.8041C132.342 43.4872 131.35 43.0382 130.408 42.4572C129.492 41.8762 128.754 41.0971 128.194 40.1199C127.634 39.1164 127.354 37.8751 127.354 36.3961C127.354 34.8115 127.762 33.4118 128.576 32.1969C129.39 30.9557 130.51 29.9785 131.935 29.2655C133.36 28.526 134.95 28.1562 136.706 28.1562C138.844 28.1562 140.765 28.658 142.47 29.6616C144.175 30.6388 145.435 32.0781 146.249 33.9796L141.592 36.3961C141.185 35.5246 140.549 34.8247 139.684 34.2965C138.844 33.7683 137.775 33.5043 136.477 33.5043C135.79 33.5043 135.179 33.6099 134.645 33.8212C134.111 34.0324 133.691 34.3362 133.385 34.7323C133.08 35.1285 132.927 35.6038 132.927 36.1584C132.927 36.8715 133.144 37.4393 133.576 37.8619C134.009 38.258 134.594 38.5617 135.332 38.7731C136.096 38.9842 136.935 39.1824 137.851 39.3672C138.818 39.5521 139.811 39.8031 140.829 40.1199C141.872 40.4104 142.826 40.8462 143.691 41.4272C144.582 42.0082 145.307 42.7872 145.867 43.7644C146.427 44.7416 146.707 45.9961 146.707 47.5279C146.707 49.1124 146.262 50.5386 145.371 51.8062C144.506 53.0476 143.335 54.0247 141.859 54.7377C140.383 55.4507 138.729 55.8074 136.897 55.8074Z" fill="black"/>
<path d="M123.965 55.2909H117.896L114.651 49.8638C114.27 49.2299 113.977 48.5433 113.773 47.8038C113.595 47.0379 113.506 46.2984 113.506 45.5853C113.506 44.8194 113.595 44.0668 113.773 43.3273C113.977 42.5614 114.27 41.8483 114.651 41.1881L117.858 35.6816H123.965L119.423 43.4064C118.939 44.2253 118.697 44.9251 118.697 45.5061C118.697 46.1136 118.977 46.8926 119.537 47.8434L123.965 55.2909ZM108.391 55.2909H102.322L106.75 47.8434C107.31 46.8926 107.59 46.1136 107.59 45.5061C107.59 44.9251 107.348 44.2253 106.865 43.4064L102.322 35.6816H108.43L111.636 41.1881C112.018 41.8483 112.297 42.5614 112.476 43.3273C112.679 44.0668 112.781 44.8194 112.781 45.5853C112.781 46.2984 112.679 47.0379 112.476 47.8038C112.297 48.5433 112.018 49.2299 111.636 49.8638L108.391 55.2909ZM116.598 47.9226H110.147V42.8916H116.598V47.9226Z" fill="black"/>
<path d="M90.973 55.8061C89.0137 55.8061 87.245 55.3703 85.6673 54.4988C84.115 53.601 82.8937 52.3728 82.003 50.8146C81.1123 49.2301 80.667 47.3946 80.667 45.3081C80.667 43.4331 81.0742 41.7165 81.8885 40.1583C82.7282 38.5737 83.886 37.3192 85.362 36.3949C86.8378 35.4441 88.5428 34.9688 90.4768 34.9688C92.4872 34.9688 94.192 35.4309 95.5917 36.3553C96.9912 37.2532 98.06 38.4548 98.798 39.9601C99.5613 41.4656 99.943 43.1161 99.943 44.912V46.5758H84.9803L85.82 45.1893C85.7692 46.2986 85.9472 47.289 86.3543 48.1605C86.787 49.032 87.385 49.7186 88.1483 50.2205C88.9373 50.6958 89.866 50.9335 90.9348 50.9335C91.9527 50.9335 92.8688 50.6826 93.6832 50.1808C94.5228 49.679 95.159 48.9791 95.5917 48.0813L99.7522 50.26C98.9378 52.0295 97.7673 53.4028 96.2405 54.38C94.7392 55.3308 92.9833 55.8061 90.973 55.8061ZM86.1253 43.4463H94.561C94.4847 42.7596 94.2557 42.1523 93.874 41.624C93.5177 41.0695 93.047 40.6468 92.4617 40.3563C91.8763 40.0395 91.202 39.881 90.4387 39.881C89.6498 39.881 88.95 40.0395 88.3393 40.3563C87.754 40.6733 87.2705 41.109 86.8888 41.6636C86.5325 42.1918 86.278 42.7861 86.1253 43.4463Z" fill="black"/>
</g>
</g>
<defs>
<clipPath id="clip0_8424_1964">
<rect width="188" height="84" fill="white"/>
</clipPath>
<clipPath id="clip1_8424_1964">
<rect width="190" height="40" fill="white" transform="translate(-1 22)"/>
</clipPath>
</defs>
</svg>
