<svg
  width="375"
  height="74"
  viewBox="0 0 375 74"
  fill="none"
  xmlns="http://www.w3.org/2000/svg"
>
  <path
    d="M97.8712 38.929V34.2877H103.833C105.087 34.2877 106.047 33.9676 106.714 33.3274C107.407 32.6872 107.754 31.8203 107.754 30.7267C107.754 29.7131 107.421 28.8728 106.754 28.206C106.087 27.5391 105.127 27.2057 103.873 27.2057H97.8712V22.3243H104.593C106.46 22.3243 108.101 22.6844 109.514 23.4046C110.928 24.0982 112.035 25.0718 112.835 26.3254C113.636 27.5791 114.036 29.0195 114.036 30.6467C114.036 32.3005 113.636 33.7542 112.835 35.0079C112.035 36.2349 110.915 37.1952 109.474 37.8887C108.034 38.5822 106.34 38.929 104.393 38.929H97.8712ZM93.0699 50.5723V22.3243H99.3516V50.5723H93.0699ZM108.434 50.5723L99.6317 38.4088L105.393 36.8484L115.876 50.5723H108.434ZM127.159 51.0124C125.051 51.0124 123.171 50.5856 121.517 49.732C119.89 48.8518 118.609 47.6381 117.676 46.091C116.742 44.5439 116.275 42.7967 116.275 40.8495C116.275 38.9023 116.729 37.1685 117.636 35.6481C118.569 34.101 119.823 32.8873 121.397 32.007C122.971 31.1268 124.744 30.6867 126.718 30.6867C128.639 30.6867 130.333 31.1001 131.8 31.927C133.267 32.7539 134.414 33.9009 135.241 35.368C136.094 36.8351 136.521 38.5155 136.521 40.4094C136.521 40.7562 136.494 41.1296 136.441 41.5297C136.414 41.9032 136.348 42.3433 136.241 42.8501L119.476 42.8901V38.6889L133.64 38.6489L131 40.4094C130.973 39.2891 130.8 38.3688 130.479 37.6486C130.159 36.9018 129.679 36.3416 129.039 35.9682C128.426 35.568 127.665 35.368 126.758 35.368C125.798 35.368 124.958 35.5947 124.238 36.0482C123.544 36.475 122.997 37.0885 122.597 37.8887C122.224 38.6889 122.037 39.6625 122.037 40.8095C122.037 41.9565 122.237 42.9435 122.637 43.7704C123.064 44.5706 123.651 45.1974 124.398 45.6509C125.171 46.0777 126.078 46.2911 127.118 46.2911C128.079 46.2911 128.946 46.131 129.719 45.8109C130.493 45.4642 131.173 44.9574 131.76 44.2905L135.121 47.6514C134.16 48.7718 133 49.612 131.64 50.1722C130.279 50.7323 128.786 51.0124 127.159 51.0124Z"
    fill="white"
  />
  <path
    d="M142.318 50.2405V21.9125H145.119V50.2405H142.318ZM159.479 50.6406C157.585 50.6406 155.892 50.2138 154.398 49.3602C152.904 48.5067 151.717 47.333 150.837 45.8392C149.983 44.3455 149.556 42.665 149.556 40.7978C149.556 38.9573 149.983 37.3035 150.837 35.8364C151.69 34.3427 152.851 33.169 154.318 32.3154C155.785 31.4619 157.425 31.0351 159.239 31.0351C160.946 31.0351 162.453 31.4219 163.76 32.1954C165.094 32.969 166.134 34.0493 166.881 35.4363C167.655 36.7967 168.042 38.3705 168.042 40.1576C168.042 40.371 168.028 40.6244 168.002 40.9179C167.975 41.1846 167.922 41.5047 167.842 41.8781H151.557V39.4775H166.321L165.321 40.3577C165.348 38.9706 165.107 37.7836 164.601 36.7967C164.121 35.7831 163.414 35.0095 162.48 34.476C161.573 33.9159 160.466 33.6358 159.159 33.6358C157.799 33.6358 156.612 33.9292 155.598 34.5161C154.585 35.1029 153.784 35.9298 153.197 36.9968C152.637 38.037 152.357 39.2774 152.357 40.7178C152.357 42.1582 152.651 43.4252 153.237 44.5189C153.851 45.6125 154.691 46.4661 155.758 47.0796C156.852 47.6931 158.106 47.9998 159.519 47.9998C160.666 47.9998 161.72 47.7998 162.68 47.3997C163.64 46.9729 164.454 46.346 165.121 45.5192L166.921 47.3597C166.041 48.4 164.947 49.2135 163.64 49.8004C162.36 50.3605 160.973 50.6406 159.479 50.6406ZM186.01 50.2405V39.1974C186.01 37.5436 185.517 36.2099 184.53 35.1962C183.569 34.156 182.289 33.6358 180.689 33.6358C179.595 33.6358 178.635 33.8759 177.808 34.356C176.981 34.8361 176.327 35.4897 175.847 36.3166C175.367 37.1435 175.127 38.0904 175.127 39.1574L173.847 38.4372C173.847 37.0234 174.18 35.7564 174.847 34.6361C175.514 33.5158 176.407 32.6355 177.528 31.9953C178.675 31.3552 179.982 31.0351 181.449 31.0351C182.889 31.0351 184.17 31.3818 185.29 32.0754C186.41 32.7689 187.277 33.7025 187.891 34.8762C188.531 36.0498 188.851 37.3302 188.851 38.7172V50.2405H186.01ZM172.326 50.2405V31.4352H175.127V50.2405H172.326ZM202.092 50.6406C200.359 50.6406 198.798 50.2138 197.411 49.3602C196.024 48.5067 194.917 47.3463 194.09 45.8793C193.29 44.3855 192.89 42.7184 192.89 40.8778C192.89 39.0107 193.29 37.3435 194.09 35.8764C194.917 34.3827 196.024 33.209 197.411 32.3554C198.798 31.4752 200.359 31.0351 202.092 31.0351C203.506 31.0351 204.787 31.3152 205.934 31.8753C207.081 32.4355 208.027 33.2357 208.774 34.276C209.548 35.2896 210.001 36.4899 210.135 37.877V43.7587C209.975 45.119 209.521 46.3194 208.774 47.3597C208.054 48.3733 207.121 49.1735 205.974 49.7603C204.827 50.3472 203.533 50.6406 202.092 50.6406ZM202.573 47.9598C203.88 47.9598 205.027 47.6664 206.014 47.0796C207.001 46.4661 207.774 45.6258 208.334 44.5589C208.894 43.4652 209.174 42.2249 209.174 40.8378C209.174 39.4241 208.881 38.1838 208.294 37.1168C207.734 36.0498 206.961 35.2096 205.974 34.5961C204.987 33.9826 203.84 33.6758 202.533 33.6758C201.226 33.6758 200.065 33.9826 199.052 34.5961C198.038 35.2096 197.238 36.0632 196.651 37.1568C196.091 38.2238 195.811 39.4508 195.811 40.8378C195.811 42.2249 196.091 43.4652 196.651 44.5589C197.238 45.6258 198.038 46.4661 199.052 47.0796C200.092 47.6664 201.266 47.9598 202.573 47.9598ZM211.815 50.2405H209.014V45.1991L209.575 40.5578L209.014 36.0365V21.9125H211.815V50.2405ZM226.772 50.2405V22.7127H228.852L229.692 26.1937V50.2405H226.772ZM245.817 50.2405L228.412 26.6338L228.852 22.7127L246.217 46.3194L245.817 50.2405ZM245.817 50.2405L244.937 46.9195V22.7127H247.898V50.2405H245.817ZM262.907 50.6406C261.013 50.6406 259.319 50.2138 257.825 49.3602C256.332 48.5067 255.145 47.333 254.264 45.8392C253.411 44.3455 252.984 42.665 252.984 40.7978C252.984 38.9573 253.411 37.3035 254.264 35.8364C255.118 34.3427 256.278 33.169 257.745 32.3154C259.212 31.4619 260.853 31.0351 262.667 31.0351C264.374 31.0351 265.881 31.4219 267.188 32.1954C268.522 32.969 269.562 34.0493 270.309 35.4363C271.082 36.7967 271.469 38.3705 271.469 40.1576C271.469 40.371 271.456 40.6244 271.429 40.9179C271.402 41.1846 271.349 41.5047 271.269 41.8781H254.985V39.4775H269.749L268.748 40.3577C268.775 38.9706 268.535 37.7836 268.028 36.7967C267.548 35.7831 266.841 35.0095 265.908 34.476C265.001 33.9159 263.894 33.6358 262.587 33.6358C261.226 33.6358 260.039 33.9292 259.026 34.5161C258.012 35.1029 257.212 35.9298 256.625 36.9968C256.065 38.037 255.785 39.2774 255.785 40.7178C255.785 42.1582 256.078 43.4252 256.665 44.5189C257.279 45.6125 258.119 46.4661 259.186 47.0796C260.279 47.6931 261.533 47.9998 262.947 47.9998C264.094 47.9998 265.147 47.7998 266.108 47.3997C267.068 46.9729 267.881 46.346 268.548 45.5192L270.349 47.3597C269.469 48.4 268.375 49.2135 267.068 49.8004C265.788 50.3605 264.401 50.6406 262.907 50.6406ZM277.971 50.2405V23.513H280.772V50.2405H277.971ZM273.21 33.9559V31.4352H285.493V33.9559H273.21ZM294.593 50.2405L287.351 31.4352H290.272L295.993 47.0396L294.953 47.0796L300.635 31.4352H302.275L307.957 47.0796L306.916 47.0396L312.598 31.4352H315.559L308.277 50.2405H306.636L300.835 34.8361H302.035L296.273 50.2405H294.593ZM327.101 50.6406C325.287 50.6406 323.633 50.2005 322.139 49.3202C320.672 48.44 319.499 47.253 318.618 45.7592C317.765 44.2655 317.338 42.5983 317.338 40.7578C317.338 38.944 317.765 37.3035 318.618 35.8364C319.499 34.3693 320.672 33.209 322.139 32.3554C323.633 31.4752 325.287 31.0351 327.101 31.0351C328.941 31.0351 330.595 31.4619 332.062 32.3154C333.529 33.169 334.69 34.3427 335.543 35.8364C336.423 37.3035 336.863 38.944 336.863 40.7578C336.863 42.625 336.423 44.3055 335.543 45.7992C334.69 47.2663 333.529 48.44 332.062 49.3202C330.595 50.2005 328.941 50.6406 327.101 50.6406ZM327.101 47.9198C328.434 47.9198 329.608 47.6131 330.622 46.9996C331.662 46.3861 332.476 45.5325 333.062 44.4388C333.676 43.3452 333.983 42.1182 333.983 40.7578C333.983 39.3974 333.676 38.1971 333.062 37.1568C332.476 36.0898 331.662 35.2496 330.622 34.6361C329.608 34.0226 328.434 33.7158 327.101 33.7158C325.794 33.7158 324.62 34.0226 323.58 34.6361C322.539 35.2496 321.726 36.0898 321.139 37.1568C320.552 38.1971 320.259 39.3974 320.259 40.7578C320.259 42.1449 320.552 43.3852 321.139 44.4789C321.726 45.5458 322.539 46.3861 323.58 46.9996C324.62 47.6131 325.794 47.9198 327.101 47.9198ZM341.319 50.2405V31.4352H344.12V50.2405H341.319ZM344.12 39.2774L342.96 38.7572C342.96 36.3832 343.533 34.5027 344.68 33.1157C345.854 31.7286 347.454 31.0351 349.481 31.0351C350.415 31.0351 351.269 31.2085 352.042 31.5552C352.816 31.8753 353.536 32.3955 354.203 33.1157L352.362 35.0762C351.909 34.5694 351.402 34.2093 350.842 33.9959C350.308 33.7825 349.695 33.6758 349.001 33.6758C347.561 33.6758 346.387 34.156 345.48 35.1162C344.573 36.0498 344.12 37.4369 344.12 39.2774ZM369.306 50.2405L359.704 40.5978L369.146 31.4352H372.627L362.344 41.318L362.464 39.7175L373.027 50.2405H369.306ZM357.183 50.2405V21.9125H359.984V50.2405H357.183Z"
    fill="white"
  />
  <path
    d="M52.7951 13.8466C54.3748 15.17 66.2744 27.3259 73.9243 34.9758C62.2668 44.4478 51.3379 29.5117 43.6877 24.0469C36.0375 18.5821 29.1158 31.6971 29.1158 31.6971C22.9227 20.04 39.316 2.55372 52.7951 13.8466Z"
    fill="url(#paint0_linear_72_191)"
    fill-opacity="0.8"
  />
  <path
    d="M57.7981 49.8001C56.4746 51.3798 44.3187 63.2795 36.6688 70.9294C27.1968 59.2718 42.133 48.3429 47.5977 40.6927C53.0625 33.0425 39.9475 26.1208 39.9475 26.1208C51.6047 19.9277 69.0909 36.3211 57.7981 49.8001Z"
    fill="url(#paint1_linear_72_191)"
    fill-opacity="0.8"
  />
  <path
    d="M21.2049 56.6583C19.6252 55.3348 7.72556 43.179 0.0756514 35.5291C11.7332 26.057 22.6621 40.9932 30.3123 46.458C37.9625 51.9228 44.8842 38.8078 44.8842 38.8078C51.0773 50.4649 34.6839 67.9512 21.2049 56.6583Z"
    fill="url(#paint2_linear_72_191)"
    fill-opacity="0.8"
  />
  <path
    d="M15.3819 21.1293C16.7054 19.5496 28.8612 7.64997 36.5111 6.04694e-05C45.9832 11.6576 31.047 22.5865 25.5822 30.2367C20.1174 37.8869 33.2325 44.8086 33.2325 44.8086C21.5753 51.0017 4.08904 34.6083 15.3819 21.1293Z"
    fill="url(#paint3_linear_72_191)"
    fill-opacity="0.8"
  />
  <circle
    cx="36.5088"
    cy="34.9725"
    r="12.0925"
    fill="url(#paint4_linear_72_191)"
    stroke="url(#paint5_radial_72_191)"
    stroke-width="2.32718"
  />
  <defs>
    <linearGradient
      id="paint0_linear_72_191"
      x1="12.3816"
      y1="24.2691"
      x2="87.1837"
      y2="5.98414"
      gradientUnits="userSpaceOnUse"
    >
      <stop stop-color="#2C7DE6" />
      <stop offset="1" stop-color="#232E98" />
    </linearGradient>
    <linearGradient
      id="paint1_linear_72_191"
      x1="51.16"
      y1="24.7184"
      x2="67.1178"
      y2="90.2118"
      gradientUnits="userSpaceOnUse"
    >
      <stop stop-color="#2C7DE6" />
      <stop offset="1" stop-color="#232E98" />
    </linearGradient>
    <linearGradient
      id="paint2_linear_72_191"
      x1="46.2866"
      y1="50.0202"
      x2="-30.1776"
      y2="65.826"
      gradientUnits="userSpaceOnUse"
    >
      <stop stop-color="#2C7DE6" />
      <stop offset="1" stop-color="#232E98" />
    </linearGradient>
    <linearGradient
      id="paint3_linear_72_191"
      x1="35.8168"
      y1="46.211"
      x2="6.0622"
      y2="-19.2823"
      gradientUnits="userSpaceOnUse"
    >
      <stop stop-color="#2C7DE6" />
      <stop offset="1" stop-color="#232E98" />
    </linearGradient>
    <linearGradient
      id="paint4_linear_72_191"
      x1="47.4377"
      y1="45.4905"
      x2="23.075"
      y2="28.9049"
      gradientUnits="userSpaceOnUse"
    >
      <stop stop-color="#274CCC" />
      <stop offset="1" stop-color="#2985E3" />
    </linearGradient>
    <radialGradient
      id="paint5_radial_72_191"
      cx="0"
      cy="0"
      r="1"
      gradientUnits="userSpaceOnUse"
      gradientTransform="translate(36.5088 43.3513) rotate(90) scale(2.55008)"
    >
      <stop stop-color="#1E1E1E" />
      <stop offset="1" stop-color="#1E1E1E" />
    </radialGradient>
  </defs>
</svg>
