<?xml version="1.0" encoding="UTF-8"?>
<svg width="164px" height="30px" viewBox="0 0 164 30" version="1.1" xmlns="http://www.w3.org/2000/svg" xmlns:xlink="http://www.w3.org/1999/xlink">
    <title>10</title>
    <g id="最终版" stroke="none" stroke-width="1" fill="none" fill-rule="evenodd">
        <g id="We-know-that" transform="translate(-19, -16)">
            <g id="10" transform="translate(19, 16)">
                <g id="STAKESTONE备份-4" transform="translate(36.5767, 8.9211)" fill="#FFFFFF" fill-rule="nonzero">
                    <path d="M10.8843781,8.73052187 C10.8843781,9.94770494 10.3528419,10.9366661 9.28976959,11.6974056 C8.22669734,12.4581449 6.78314211,12.8385146 4.9591039,12.8385146 C3.90458181,12.8385146 2.98543754,12.748609 2.20167113,12.5687979 C1.41790471,12.3889868 0.684014331,12.160765 0,11.8841325 L0,8.92139832 L0.359107523,8.92139832 C1.03742173,9.44700009 1.79696265,9.85088359 2.63773026,10.1330487 C3.47849788,10.4152139 4.28648981,10.5562964 5.06170604,10.5562964 C5.26121022,10.5562964 5.52341572,10.5396985 5.84832253,10.5065026 C6.17322934,10.4733067 6.43828489,10.4179802 6.64348919,10.3405231 C6.89429445,10.2409354 7.10092377,10.1164508 7.26337718,9.96706922 C7.42583057,9.81768767 7.50705728,9.59638164 7.50705728,9.3031512 C7.50705728,9.03205137 7.38877979,8.79829691 7.15222485,8.60188781 C6.91566989,8.40547872 6.56938764,8.25471397 6.11337808,8.14959364 C5.63456805,8.03894066 5.12868245,7.93520346 4.59572129,7.83838204 C4.06276012,7.74156069 3.56257464,7.61845921 3.09516485,7.46907766 C2.02354239,7.13158601 1.25260124,6.67375922 0.782341391,6.09559728 C0.312081538,5.51743534 0.0769516121,4.79957398 0.0769516121,3.94201322 C0.0769516121,2.79122199 0.608487749,1.85205463 1.67156002,1.12451114 C2.73463229,0.396967647 4.10123593,0.0331959008 5.77137092,0.0331959008 C6.60928847,0.0331959008 7.43723083,0.112036165 8.25519794,0.269716693 C9.07316506,0.427397223 9.78140493,0.625189464 10.3799175,0.86309342 L10.3799175,3.70964191 L10.0293602,3.70964191 C9.51634935,3.3112911 8.88791121,2.97794893 8.14404559,2.7096154 C7.40018005,2.44128187 6.64063913,2.3071151 5.86542289,2.3071151 C5.59181715,2.3071151 5.31963645,2.32509621 5.04888078,2.36105844 C4.77812511,2.39702067 4.51734464,2.46479563 4.26653939,2.56438334 C4.04423473,2.64737309 3.85328073,2.77324088 3.69367739,2.9419867 C3.53407404,3.11073253 3.45427237,3.30299213 3.45427237,3.51876548 C3.45427237,3.84519184 3.58252506,4.09554426 3.83903043,4.26982274 C4.0955358,4.44410121 4.58004595,4.6031649 5.29256089,4.74701381 C5.75997068,4.84106886 6.20885508,4.93235759 6.6392141,5.02087999 C7.06957311,5.10940239 7.5327078,5.2311207 8.02861819,5.3860349 C9.00333861,5.69586331 9.72297867,6.11772788 10.1875384,6.65162862 C10.6520982,7.18552936 10.8843781,7.87849381 10.8843781,8.73052187 Z" id="路径"></path>
                    <polygon id="路径" points="23.0940339 2.64737309 19.1182005 2.64737309 19.1182005 12.6144423 15.8349317 12.6144423 15.8349317 2.64737309 11.8590985 2.64737309 11.8590985 0.257268231 23.0940339 0.257268231"></polygon>
                    <path d="M36.8341717,12.6144423 L33.4397506,12.6144423 L32.5590822,10.1164508 L27.8393833,10.1164508 L26.9587148,12.6144423 L23.6497955,12.6144423 L28.352394,0.257268231 L32.1315732,0.257268231 L36.8341717,12.6144423 Z M31.7639155,7.85083055 L30.1992327,3.41917778 L28.6345499,7.85083055 L31.7639155,7.85083055 Z" id="形状"></path>
                    <polygon id="路径" points="50.548659 12.6144423 46.5215246 12.6144423 42.716695 7.66825308 41.9471788 8.57284135 41.9471788 12.6144423 38.66391 12.6144423 38.66391 0.257268231 41.9471788 0.257268231 41.9471788 5.85077751 46.4958741 0.257268231 50.3007039 0.257268231 45.3244996 5.97526214"></polygon>
                    <polygon id="路径" points="61.3731858 12.6144423 52.1646429 12.6144423 52.1646429 0.257268231 61.3731858 0.257268231 61.3731858 2.64737309 52.1646429 2.64737309 52.1646429 4.75316334 60.9456769 4.78020971 60.9456769 7.17031457 52.1646429 7.17031457 52.1646429 10.2243374 61.3731858 10.2243374"></polygon>
                    <path d="M74.3181573,8.73052187 C74.3181573,9.94770494 73.7866209,10.9366661 72.7235487,11.6974056 C71.6604763,12.4581449 70.2169211,12.8385146 68.3928829,12.8385146 C67.3383608,12.8385146 66.4192165,12.748609 65.6354501,12.5687979 C64.8516837,12.3889868 64.1177933,12.160765 63.433779,11.8841325 L63.433779,8.92139832 L63.7928865,8.92139832 C64.4712007,9.44700009 65.2307416,9.85088359 66.0715093,10.1330487 C66.9122769,10.4152139 67.7202688,10.5562964 68.495485,10.5562964 C68.6949892,10.5562964 68.9571947,10.5396985 69.2821015,10.5065026 C69.6070083,10.4733067 69.8720639,10.4179802 70.0772682,10.3405231 C70.3280734,10.2409354 70.5347028,10.1164508 70.6971562,9.96706922 C70.8596096,9.81768767 70.9408363,9.59638164 70.9408363,9.3031512 C70.9408363,9.03205137 70.8225588,8.79829691 70.5860038,8.60188781 C70.3494489,8.40547872 70.0031666,8.25471397 69.5471571,8.14959364 C69.0683471,8.03894066 68.5624615,7.93520346 68.0295003,7.83838204 C67.4965391,7.74156069 66.9963536,7.61845921 66.5289438,7.46907766 C65.4573214,7.13158601 64.6863802,6.67375922 64.2161204,6.09559728 C63.7458606,5.51743534 63.5107306,4.79957398 63.5107306,3.94201322 C63.5107306,2.79122199 64.0422668,1.85205463 65.105339,1.12451114 C66.1684113,0.396967647 67.535015,0.0331959008 69.2051499,0.0331959008 C70.0430675,0.0331959008 70.8710098,0.112036165 71.6889769,0.269716693 C72.5069441,0.427397223 73.2151839,0.625189464 73.8136965,0.86309342 L73.8136965,3.70964191 L73.4631391,3.70964191 C72.9501283,3.3112911 72.3216902,2.97794893 71.5778247,2.7096154 C70.833959,2.44128187 70.0744181,2.3071151 69.2992019,2.3071151 C69.0255961,2.3071151 68.7534155,2.32509621 68.4826598,2.36105844 C68.2119041,2.39702067 67.9511236,2.46479563 67.7003184,2.56438334 C67.4780137,2.64737309 67.2870597,2.77324088 67.1274564,2.9419867 C66.967853,3.11073253 66.8880513,3.30299213 66.8880513,3.51876548 C66.8880513,3.84519184 67.016304,4.09554426 67.2728095,4.26982274 C67.5293148,4.44410121 68.013825,4.6031649 68.7263399,4.74701381 C69.1937497,4.84106886 69.6426341,4.93235759 70.0729931,5.02087999 C70.5033521,5.10940239 70.9664868,5.2311207 71.4623972,5.3860349 C72.4371176,5.69586331 73.1567577,6.11772788 73.6213174,6.65162862 C74.0858773,7.18552936 74.3181573,7.87849381 74.3181573,8.73052187 Z M86.5278128,2.64737309 L82.5519794,2.64737309 L82.5519794,12.6144423 L79.2687107,12.6144423 L79.2687107,2.64737309 L75.2928773,2.64737309 L75.2928773,0.257268231 L86.5278128,0.257268231 L86.5278128,2.64737309 Z M100.883563,6.44000475 C100.883563,8.40962817 100.302151,9.973985 99.1393268,11.1330752 C97.976503,12.2921654 96.3690693,12.8717105 94.3170258,12.8717105 C92.2706828,12.8717105 90.6660998,12.2921654 89.5032752,11.1330752 C88.3404507,9.973985 87.7590388,8.40962817 87.7590388,6.44000475 C87.7590388,4.45378336 88.3404507,2.88389388 89.5032752,1.73033633 C90.6660998,0.576778776 92.2706828,0 94.3170258,0 C96.3576688,0 97.9622526,0.576778776 99.130777,1.73033633 C100.299301,2.88389388 100.883563,4.45378336 100.883563,6.44000475 Z M96.5315223,9.56871838 C96.8507291,9.19249822 97.087284,8.74850303 97.2411872,8.23673288 C97.3950903,7.72496274 97.4720423,7.12328704 97.4720423,6.43170577 C97.4720423,5.69033066 97.3836906,5.05960854 97.2069865,4.53953943 C97.0302831,4.01947032 96.799428,3.59898891 96.5144219,3.2780952 C96.223716,2.94613619 95.8888338,2.70546591 95.5097761,2.55608436 C95.1307178,2.4067028 94.7359847,2.33201203 94.3255763,2.33201203 C93.9094673,2.33201203 93.5175842,2.40393648 93.1499263,2.54778539 C92.7822691,2.69163429 92.444537,2.92953824 92.1367307,3.26149725 C91.8517246,3.57132566 91.6194445,3.99872288 91.4398905,4.54368892 C91.2603372,5.08865496 91.1705598,5.72076023 91.1705598,6.44000475 C91.1705598,7.17584722 91.2574873,7.80241987 91.4313407,8.3197226 C91.6051941,8.8370254 91.8346243,9.25888998 92.1196304,9.58531634 C92.4046357,9.91174269 92.7380929,10.152413 93.1200012,10.3073272 C93.5019088,10.4622414 93.9037674,10.5396985 94.3255763,10.5396985 C94.7473852,10.5396985 95.1492438,10.4608582 95.5311514,10.3031777 C95.9130597,10.1454972 96.2465162,9.90067739 96.5315223,9.56871838 Z M114.965709,12.6144423 L111.802143,12.6144423 L106.398429,4.13288964 L106.398429,12.6144423 L103.388766,12.6144423 L103.388766,0.257268231 L107.313298,0.257268231 L111.956046,7.33629407 L111.956046,0.257268231 L114.965709,0.257268231 L114.965709,12.6144423 Z M127.42332,12.6144423 L118.214777,12.6144423 L118.214777,0.257268231 L127.42332,0.257268231 L127.42332,2.64737309 L118.214777,2.64737309 L118.214777,4.78020971 L126.99581,4.78020971 L126.99581,7.17031457 L118.214777,7.17031457 L118.214777,10.2243374 L127.42332,10.2243374 L127.42332,12.6144423 Z" id="形状结合"></path>
                </g>
                <g id="编组-3备份" transform="translate(1, 1)">
                    <g id="路径" transform="translate(0.3637, 7.2389)">
                        <line x1="11.6888758" y1="0" x2="10.2237053" y2="11.0281633" stroke="#FFFFFF" stroke-width="1.50509538"></line>
                        <g id="蒙版" transform="translate(0, 6.4522)" fill="#FFFFFF" fill-rule="nonzero">
                            <polygon id="path-1" points="0 3.57898415 5.26976181 0 9.60720278 4.36328485 19.2838885 2.23791103 24.5578829 4.22432564 12.185768 14.308833"></polygon>
                        </g>
                        <g id="Clipped" transform="translate(0, 6.4522)" stroke="#06070A" stroke-width="1.50509538">
                            <line x1="10.2237053" y1="3.92829402" x2="12.185768" y2="14.308833" id="路径"></line>
                        </g>
                    </g>
                    <polygon id="路径-21" stroke="#FFFFFF" stroke-width="1.50509538" points="12.5432766 0 5.63348809 5.43074927 0 16.852436 12.5432766 28 25.1030576 17.7378562 18.4717162 3.73489428"></polygon>
                    <polyline id="路径-22" stroke="#FFFFFF" stroke-width="1.50509538" points="5.63348809 5.43074927 11.9046537 7.23892197 18.4717162 3.73489428"></polyline>
                </g>
            </g>
        </g>
    </g>
</svg>